HIERARCHY
ROOT Hips
{
	OFFSET 0.000000 0.000000 0.000000
	CHANNELS 6 Xposition Yposition Zposition Zrotation Yrotation Xrotation 
	JOINT LeftUpLeg_virtual
	{
		OFFSET 0.000000 0.000000 0.000000
		CHANNELS 3 Zrotation Yrotation Xrotation
		JOINT LeftUpLeg
		{
			OFFSET 8.479694 -4.795517 -0.379053
			CHANNELS 3 Zrotation Yrotation Xrotation
			JOINT LeftLeg
			{
				OFFSET 0.485052 -32.551468 0.112863
				CHANNELS 3 Zrotation Yrotation Xrotation
				JOINT LeftFoot
				{
					OFFSET 0.438033 -32.635670 -3.012641
					CHANNELS 3 Zrotation Yrotation Xrotation
					JOINT LeftToeBase
					{
						OFFSET 0.970169 -13.225353 11.864223
						CHANNELS 3 Zrotation Yrotation Xrotation
						End Site
						{
							OFFSET 0.000000 0.000000 0.000000
						}
					}
				}
			}
		}
	}
	JOINT RightUpLeg_virtual
	{
		OFFSET 0.000000 0.000000 0.000000
		CHANNELS 3 Zrotation Yrotation Xrotation
		JOINT RightUpLeg
		{
			OFFSET -8.479694 -4.795517 -0.379053
			CHANNELS 3 Zrotation Yrotation Xrotation
			JOINT RightLeg
			{
				OFFSET -0.484100 -32.551483 0.112903
				CHANNELS 3 Zrotation Yrotation Xrotation
				JOINT RightFoot
				{
					OFFSET -0.438985 -32.635651 -3.012681
					CHANNELS 3 Zrotation Yrotation Xrotation
					JOINT RightToeBase
					{
						OFFSET -0.970169 -13.225354 11.864223
						CHANNELS 3 Zrotation Yrotation Xrotation
						End Site
						{
							OFFSET 0.000000 0.000000 0.000000
						}
					}
				}
			}
		}
	}
	JOINT Spine_virtual
	{
		OFFSET 0.000000 0.000000 0.000000
		CHANNELS 3 Zrotation Yrotation Xrotation
		JOINT Spine
		{
			OFFSET 0.000000 7.722015 1.166203
			CHANNELS 3 Zrotation Yrotation Xrotation
			JOINT Spine1
			{
				OFFSET 0.000000 12.024086 0.248766
				CHANNELS 3 Zrotation Yrotation Xrotation
				JOINT Spine2
				{
					OFFSET -0.000000 11.503036 -0.491240
					CHANNELS 3 Zrotation Yrotation Xrotation
					JOINT Neck_virtual
					{
						OFFSET 0.000000 0.000000 0.000000
						CHANNELS 3 Zrotation Yrotation Xrotation
						JOINT Neck
						{
							OFFSET 0.000000 18.430687 -3.123054
							CHANNELS 3 Zrotation Yrotation Xrotation
							JOINT Head
							{
								OFFSET -0.000000 9.051071 1.034021
								CHANNELS 3 Zrotation Yrotation Xrotation
								End Site
								{
									OFFSET 0.000000 0.000000 0.000000
								}
							}
						}
					}
					JOINT LeftShoulder_virtual
					{
						OFFSET 0.000000 0.000000 0.000000
						CHANNELS 3 Zrotation Yrotation Xrotation
						JOINT LeftShoulder
						{
							OFFSET 6.197824 13.665230 -4.064723
							CHANNELS 3 Zrotation Yrotation Xrotation
							JOINT LeftArm
							{
								OFFSET 7.778132 -0.187073 -1.709282
								CHANNELS 3 Zrotation Yrotation Xrotation
								JOINT LeftForeArm
								{
									OFFSET 21.954697 0.000000 -2.041093
									CHANNELS 3 Zrotation Yrotation Xrotation
									JOINT LeftHand
									{
										OFFSET 22.992908 0.000000 -0.870901
										CHANNELS 3 Zrotation Yrotation Xrotation
										End Site
										{
											OFFSET 0.000000 0.000000 0.000000
										}
									}
								}
							}
						}
					}
					JOINT RightShoulder_virtual
					{
						OFFSET 0.000000 0.000000 0.000000
						CHANNELS 3 Zrotation Yrotation Xrotation
						JOINT RightShoulder
						{
							OFFSET -6.197824 13.665230 -4.064723
							CHANNELS 3 Zrotation Yrotation Xrotation
							JOINT RightArm
							{
								OFFSET -7.778132 -0.187073 -1.709282
								CHANNELS 3 Zrotation Yrotation Xrotation
								JOINT RightForeArm
								{
									OFFSET -21.954697 0.000000 -2.041093
									CHANNELS 3 Zrotation Yrotation Xrotation
									JOINT RightHand
									{
										OFFSET -22.992908 0.000000 -0.870901
										CHANNELS 3 Zrotation Yrotation Xrotation
										End Site
										{
											OFFSET 0.000000 0.000000 0.000000
										}
									}
								}
							}
						}
					}
				}
			}
		}
	}
}
MOTION
Frames: 10
Frame Time: 0.033333
4.187602 80.636993 26.552221 -179.924750 6.454851 179.956852 -4.314018 -0.063887 11.241072 -5.433312 0.239899 -24.732504 9.513050 6.188833 30.640232 1.165286 -7.495481 -13.633606 0.000000 0.000000 0.000000 -1.253145 -1.235420 11.576148 1.463151 -4.173077 -22.144293 -1.192232 2.280016 30.387409 5.711199 4.179404 -12.803019 0.000000 0.000000 0.000000 2.352145 1.771420 0.222570 -4.716039 1.197523 -2.400311 0.828968 -3.233119 4.072870 0.019297 -0.016938 -0.033529 0.650179 -2.324504 5.721502 -1.427593 2.670218 -6.461745 0.000000 0.000000 0.000000 2.053044 -1.505739 2.802946 -3.063955 6.367952 -8.781282 -7.036486 -8.748045 -54.812131 1.579975 -35.696536 -0.110267 0.000000 0.000000 0.000000 -1.590325 -0.312207 2.227270 18.063163 -9.613203 -12.765341 4.366635 7.476328 -54.658336 2.661744 20.765652 1.016124 0.000000 0.000000 0.000000 
4.145166 80.613457 26.589695 179.985744 6.548028 179.884507 -4.395949 -0.012445 11.188950 -5.631838 0.461086 -24.797661 9.461937 6.389340 30.775070 1.104502 -7.589788 -13.372984 0.000000 0.000000 0.000000 -1.241569 -1.447088 11.558556 1.381425 -4.227243 -22.289984 -1.402569 2.052528 30.464925 5.831116 4.290994 -12.929101 0.000000 0.000000 0.000000 2.263183 1.662906 0.262479 -4.694794 1.206342 -2.343744 0.798403 -3.198956 4.068030 0.008845 -0.030344 -0.031173 0.666734 -2.281340 5.691366 -1.364181 2.539979 -6.398061 0.000000 0.000000 0.000000 2.069321 -1.523657 2.648304 -3.067295 6.353782 -8.726286 -7.149462 -8.648000 -54.502611 1.662978 -35.741506 -0.187036 0.000000 0.000000 0.000000 -1.603480 -0.237921 2.152166 18.235488 -9.560767 -12.752416 4.224994 7.285749 -54.815642 2.669421 20.872879 1.028307 0.000000 0.000000 0.000000 
4.084429 80.589294 26.608480 -179.919969 6.676486 179.977821 -4.332520 -0.141071 11.183228 -5.676969 0.417168 -24.907463 9.533933 6.458939 30.788850 1.274174 -7.514244 -13.492030 0.000000 0.000000 0.000000 -1.224468 -1.597019 11.512639 1.344518 -3.913179 -22.426107 -1.386062 2.080824 30.478128 5.886824 4.269714 -12.948738 0.000000 0.000000 0.000000 2.296233 1.504518 0.253207 -4.584047 1.215250 -2.463085 0.771122 -3.177578 4.035091 -0.005113 -0.039099 -0.051048 0.610570 -2.254045 5.774695 -1.336051 2.471760 -6.304265 0.000000 0.000000 0.000000 2.024675 -1.387961 2.752082 -3.139541 6.365138 -8.709631 -7.225724 -8.834602 -54.542438 1.578932 -35.855959 -0.051565 0.000000 0.000000 0.000000 -1.625763 -0.179741 2.229525 18.403362 -9.564077 -12.732711 4.316816 7.063539 -54.755086 2.648640 21.149863 1.108714 0.000000 0.000000 0.000000 
4.036469 80.584755 26.621155 179.983367 6.778304 179.882512 -4.398360 -0.353806 11.220334 -5.766030 0.351941 -24.838721 9.607142 6.523908 30.751704 1.457945 -7.400446 -13.457673 0.000000 0.000000 0.000000 -1.370901 -1.863363 11.555408 1.358370 -3.906589 -22.440281 -1.293120 2.451614 30.473039 5.941852 4.224092 -12.899145 0.000000 0.000000 0.000000 2.254555 1.403630 0.338372 -4.522920 1.281724 -2.550360 0.700096 -3.058599 4.048859 -0.027770 -0.001480 -0.021231 0.600446 -2.117424 5.765044 -1.185797 2.221166 -6.100532 0.000000 0.000000 0.000000 1.985332 -1.387802 2.784162 -3.281919 6.334120 -8.654002 -7.305447 -9.173771 -54.343099 1.623785 -35.944922 -0.064439 0.000000 0.000000 0.000000 -1.645240 -0.227827 2.169012 18.672122 -9.712648 -12.616046 4.399655 6.771800 -54.821759 2.658010 21.504328 1.270635 0.000000 0.000000 0.000000 
3.989717 80.592041 26.621386 -179.979159 6.944082 179.961496 -4.371632 -0.443126 11.200220 -5.811235 0.257590 -24.854536 9.686781 6.628905 30.726371 1.623323 -7.320592 -13.433150 0.000000 0.000000 0.000000 -1.340118 -1.926724 11.495816 1.312323 -3.935446 -22.470452 -1.238426 2.534477 30.453956 6.077209 4.276445 -12.820202 0.000000 0.000000 0.000000 2.284709 1.310306 0.314085 -4.378446 1.305885 -2.724274 0.660997 -2.994475 4.044359 0.004245 0.001635 0.001238 0.519107 -2.100289 5.811279 -1.103422 2.101708 -5.876102 0.000000 0.000000 0.000000 1.902232 -1.264601 2.796981 -3.480329 6.306603 -8.690642 -7.431655 -9.436236 -53.976000 1.520524 -35.949693 0.126663 0.000000 0.000000 0.000000 -1.723417 -0.156799 2.235176 18.935057 -9.654798 -12.556785 4.398518 6.577700 -54.921479 2.741303 21.785684 1.568745 0.000000 0.000000 0.000000 
3.950642 80.602882 26.619539 -179.916199 6.929168 179.931389 -4.360526 -0.514218 11.194701 -5.829721 0.225581 -24.809634 9.742184 6.654951 30.733935 1.706512 -7.296055 -13.380113 0.000000 0.000000 0.000000 -1.331050 -2.031398 11.467642 1.305072 -4.000232 -22.428456 -1.205735 2.595779 30.480320 6.157381 4.282602 -12.712191 0.000000 0.000000 0.000000 2.259651 1.231792 0.399569 -4.249657 1.306328 -2.853583 0.696229 -2.931640 3.964285 0.001055 0.007019 0.008843 0.450412 -2.030923 5.908378 -1.004024 1.914690 -5.608062 0.000000 0.000000 0.000000 1.863681 -1.227171 2.813423 -3.636211 6.140809 -8.601591 -7.545949 -9.639129 -53.527496 1.503387 -35.856079 0.272649 0.000000 0.000000 0.000000 -1.831596 -0.011319 2.320481 19.179943 -9.529489 -12.281304 4.339000 6.351653 -54.996963 2.694931 21.920565 1.674064 0.000000 0.000000 0.000000 
3.913935 80.615242 26.624134 -179.922373 6.695501 179.909478 -4.427413 -0.602625 11.166482 -5.812154 0.257359 -24.748355 9.766204 6.651935 30.719568 1.702918 -7.355168 -13.351660 0.000000 0.000000 0.000000 -1.365563 -2.145556 11.412375 1.333054 -4.108830 -22.399040 -1.196130 2.635999 30.530686 6.168023 4.241330 -12.627270 0.000000 0.000000 0.000000 2.186423 1.121326 0.399490 -4.163279 1.242431 -2.921120 0.695403 -2.927730 3.980110 -0.000458 -0.052362 -0.039512 0.451519 -1.906943 5.979453 -0.896885 1.715989 -5.375481 0.000000 0.000000 0.000000 1.845861 -1.069614 2.846679 -3.819607 6.064552 -8.532689 -7.655072 -10.015704 -53.155216 1.450934 -35.660455 0.452240 0.000000 0.000000 0.000000 -1.807435 0.097739 2.411608 19.318015 -9.310876 -12.060091 4.306551 6.186478 -55.464718 2.760138 21.816196 1.911502 0.000000 0.000000 0.000000 
3.872992 80.630585 26.631004 -179.944189 6.568375 179.935118 -4.501574 -0.539046 11.071967 -5.755455 0.412584 -24.717748 9.741048 6.623097 30.697541 1.577069 -7.542429 -13.343577 0.000000 0.000000 0.000000 -1.393376 -2.058801 11.286842 1.363132 -4.061190 -22.381843 -1.221026 2.636927 30.665097 6.105128 4.137064 -12.569076 0.000000 0.000000 0.000000 2.086922 1.182654 0.386198 -4.109568 1.309420 -2.993671 0.721188 -2.796071 4.017840 0.003568 0.007832 0.016065 0.476261 -1.830373 5.914322 -0.712175 1.471976 -5.081964 0.000000 0.000000 0.000000 1.820942 -1.007147 2.852246 -3.875680 5.737069 -8.449969 -7.961683 -10.254231 -52.832719 1.493921 -35.375510 0.624643 0.000000 0.000000 0.000000 -1.846834 0.138151 2.250691 19.369126 -9.237588 -11.685330 4.354781 5.868331 -56.005232 2.841741 21.751784 2.086270 0.000000 0.000000 0.000000 
3.859433 80.647751 26.641809 -179.928916 6.390238 179.976564 -4.577223 -0.516945 10.984298 -5.683855 0.632437 -24.703175 9.723420 6.596947 30.710446 1.415813 -7.758712 -13.314412 0.000000 0.000000 0.000000 -1.362805 -1.963204 11.166056 1.373083 -4.034821 -22.368888 -1.256496 2.606478 30.850312 6.005262 3.996492 -12.506214 0.000000 0.000000 0.000000 1.987315 1.185088 0.356034 -4.050775 1.296197 -2.890321 0.769304 -2.731028 3.821748 -0.007730 -0.000132 -0.023810 0.538732 -1.728486 6.015080 -0.556442 1.278918 -4.939013 0.000000 0.000000 0.000000 1.877890 -0.916088 2.936965 -3.859416 5.445200 -8.398339 -8.746216 -10.088217 -52.581767 1.535290 -35.247253 0.804949 0.000000 0.000000 0.000000 -1.799463 0.225548 2.334351 19.224677 -9.032322 -11.279267 4.635374 5.524310 -56.684959 2.891939 21.846614 2.247854 0.000000 0.000000 0.000000 
3.868510 80.666939 26.671484 179.976646 6.291260 179.978586 -4.712368 -0.574590 10.859443 -5.640879 0.864480 -24.655777 9.738089 6.597690 30.807305 1.282789 -7.922288 -13.251606 0.000000 0.000000 0.000000 -1.372356 -1.925139 11.057228 1.368973 -4.134530 -22.381707 -1.249487 2.710440 31.058988 5.955804 3.899203 -12.419198 0.000000 0.000000 0.000000 1.832225 1.165117 0.387033 -4.060976 1.262211 -2.742073 0.815335 -2.698298 3.721179 -0.018300 -0.037093 -0.039560 0.643024 -1.577672 5.990479 -0.395673 1.092882 -4.800651 0.000000 0.000000 0.000000 1.982724 -0.813902 2.876227 -3.792104 5.172578 -8.290412 -10.057173 -9.624075 -52.583963 1.520570 -35.412707 1.022193 0.000000 0.000000 0.000000 -1.691063 0.322047 2.308852 19.016937 -8.822297 -10.775267 5.242910 5.184358 -57.230333 2.887554 22.379453 2.265613 0.000000 0.000000 0.000000 
